<svg width="306" height="440" fill="none" xmlns="http://www.w3.org/2000/svg"><path d="m162.157 22.206 3.266-19.866S160.5 0 153 0s-12.423 2.34-12.423 2.34l3.266 19.866c.196 1.19.293 1.786-.047 2.146-.341.36-.941.296-2.141.167l-22.309-2.399c-2.687 5.35-2.687 17.41 0 22.76l22.453-2.414c1.141-.123 1.711-.184 2.049.154.339.339.277.91.153 2.05l-2.374 21.866C81.567 72.231 34.004 112.5 34.004 183.998L34 402c-2.472 0-3.709 0-4.811.456-1.102.457-1.97 1.324-3.703 3.057l-16.59 16.581a5.994 5.994 0 0 1-4.194 1.893c-.093.003-.19.003-.384.003-.295 0-.443 0-.568.008a4 4 0 0 0-3.742 3.743c-.008.124-.008.272-.008.567V440h306v-11.692c0-.295 0-.443-.008-.567a4 4 0 0 0-3.742-3.743c-.125-.008-.273-.008-.568-.008-.194 0-.291 0-.385-.003a5.997 5.997 0 0 1-3.92-1.623 11.08 11.08 0 0 1-.274-.27l-16.589-16.581c-1.734-1.733-2.601-2.6-3.703-3.057C275.709 402 274.472 402 272 402l-.004-218.002c0-71.498-47.562-111.767-107.623-117.462l-2.374-21.866c-.124-1.14-.186-1.711.153-2.05.338-.338.908-.277 2.049-.154l22.453 2.414c2.687-5.35 2.687-17.41 0-22.76l-22.309 2.399c-1.2.129-1.8.194-2.141-.167-.34-.36-.243-.955-.047-2.146Z" fill="#000"/></svg>