<svg width="306" height="440" fill="none" xmlns="http://www.w3.org/2000/svg"><path d="M305 440c-.6 0-1-.4-1-1v-6c0-.6.4-1 1-1s1 .4 1 1v6c0 .6-.4 1-1 1Z" fill="url(#a)"/><path d="M299.7 427H294c-.8 0-1.4 0-2-.2-.6-.2-1.1-.5-1.5-.9-.5-.5-.7-1-1.1-1.7l-.6-1.1c-.2-.5 0-1.1.4-1.3.5-.2 1.1 0 1.3.4l.6 1.1c.3.7.5.9.7 1.2.2.2.5.4.8.5.3.1.6.1 1.4.1h5.8c.6 0 1 .4 1 1s-.5.9-1.1.9Z" fill="url(#b)"/><path d="M283 415h-6c-.6 0-1-.4-1-1v-6c0-.6.4-1 1-1s1 .4 1 1v5h5c.6 0 1 .4 1 1s-.4 1-1 1Z" fill="url(#c)"/><path d="M277 396.9c-.6 0-1-.4-1-1v-12.1c0-.6.4-1 1-1s1 .4 1 1v12.1c0 .5-.4 1-1 1Zm-248-.1c-.6 0-1-.4-1-1v-12.1c0-.6.4-1 1-1s1 .4 1 1v12.1c0 .5-.4 1-1 1Zm248-24.1c-.6 0-1-.4-1-1v-12.1c0-.6.4-1 1-1s1 .4 1 1v12.1c0 .5-.4 1-1 1Zm-248-.1c-.6 0-1-.4-1-1v-12.1c0-.6.4-1 1-1s1 .4 1 1v12.1c0 .5-.4 1-1 1Zm248-24.1c-.6 0-1-.4-1-1v-12.1c0-.6.4-1 1-1s1 .4 1 1v12.1c0 .5-.4 1-1 1Zm-248-.1c-.6 0-1-.4-1-1v-12.1c0-.6.4-1 1-1s1 .4 1 1v12.1c0 .5-.4 1-1 1Zm248-24.1c-.6 0-1-.4-1-1v-12.1c0-.6.4-1 1-1s1 .4 1 1v12.1c0 .5-.4 1-1 1Zm-248-.2c-.6 0-1-.4-1-1V311c0-.6.4-1 1-1s1 .4 1 1v12.1c0 .6-.4 1-1 1Zm248-24c-.6 0-1-.4-1-1V287c0-.6.4-1 1-1s1 .4 1 1v12.1c0 .5-.4 1-1 1Zm-248-.2c-.6 0-1-.4-1-1v-12.1c0-.6.4-1 1-1s1 .4 1 1v12.1c0 .6-.4 1-1 1Zm248-24c-.6 0-1-.4-1-1v-12.1c0-.6.4-1 1-1s1 .4 1 1v12.1c0 .5-.4 1-1 1Zm-248-.2c-.6 0-1-.4-1-1v-12.1c0-.6.4-1 1-1s1 .4 1 1v12.1c0 .6-.4 1-1 1Zm248-24c-.6 0-1-.4-1-1v-12.1c0-.6.4-1 1-1s1 .4 1 1v12.1c0 .5-.4 1-1 1Zm-248-.2c-.6 0-1-.4-1-1v-12.1c0-.6.4-1 1-1s1 .4 1 1v12.1c0 .6-.4 1-1 1Zm248-24c-.6 0-1-.4-1-1v-12.1c0-.6.4-1 1-1s1 .4 1 1v12.1c0 .5-.4 1-1 1Zm-248-.2c-.6 0-1-.4-1-1v-12.1c0-.6.4-1 1-1s1 .4 1 1v12.1c0 .6-.4 1-1 1Zm248-24c-.6 0-1-.4-1-1v-12.1c0-.6.4-1 1-1s1 .4 1 1v12.1c0 .5-.4 1-1 1Zm-248-.2c-.6 0-1-.4-1-1V190c0-.6.4-1 1-1s1 .4 1 1v12.1c0 .6-.4 1-1 1ZM277 179c-.6 0-1-.4-1-1v-12.1c0-.6.4-1 1-1s1 .4 1 1V178c0 .6-.4 1-1 1Zm-248-.1c-.6 0-1-.4-1-1v-12.1c0-.6.4-1 1-1s1 .4 1 1v12.1c0 .6-.4 1-1 1Zm248-24.1c-.6 0-1-.4-1-1v-12.1c0-.6.4-1 1-1s1 .4 1 1v12.1c0 .6-.4 1-1 1Zm-248-.1c-.6 0-1-.4-1-1v-12.1c0-.6.4-1 1-1s1 .4 1 1v12.1c0 .6-.4 1-1 1Zm248-24.1c-.6 0-1-.4-1-1v-6.4c0-1.9-.1-3.8-.2-5.6 0-.6.4-1 .9-1.1.5 0 1 .4 1.1.9.1 1.9.2 3.8.2 5.7v6.4c0 .7-.4 1.1-1 1.1Zm-248-.1c-.6 0-1-.4-1-1v-6.3c0-1.9.1-3.9.2-5.9 0-.6.5-1 1.1-.9.6 0 1 .5.9 1.1-.1 1.9-.2 3.9-.2 5.8v6.3c0 .5-.4.9-1 .9Zm246.6-24c-.5 0-.9-.4-1-.8-.6-3.9-1.4-7.9-2.4-11.8-.1-.5.2-1.1.7-1.2.5-.1 1.1.2 1.2.7 1 3.9 1.8 7.9 2.4 11.9.1.5-.3 1.1-.8 1.1 0 .1-.1.1-.1.1Zm-245.2-.1h-.2c-.5-.1-.9-.6-.8-1.1.6-4 1.4-8 2.5-11.9.1-.5.7-.9 1.2-.7.5.1.9.7.7 1.2-1 3.9-1.8 7.8-2.4 11.7-.1.4-.5.8-1 .8Zm239.2-23.3c-.4 0-.8-.3-.9-.7-1.4-3.7-2.9-7.5-4.7-11-.2-.5 0-1.1.5-1.3.5-.2 1.1 0 1.3.5 1.8 3.6 3.4 7.4 4.8 11.2.2.5-.1 1.1-.6 1.3h-.4ZM36.5 83c-.1 0-.2 0-.3-.1-.5-.2-.8-.8-.6-1.3 1.4-3.8 3-7.6 4.8-11.2.2-.5.8-.7 1.3-.5.5.2.7.8.5 1.3-1.7 3.6-3.3 7.3-4.7 11-.3.5-.6.8-1 .8Zm222.6-21.7c-.3 0-.7-.2-.9-.5-2.1-3.4-4.3-6.7-6.7-9.9-.3-.4-.2-1.1.2-1.4.4-.3 1.1-.2 1.4.2 2.4 3.2 4.7 6.6 6.9 10.1.3.5.1 1.1-.3 1.4-.2.1-.4.1-.6.1ZM47 61.2c-.2 0-.4 0-.5-.1-.5-.3-.6-.9-.3-1.4 2.1-3.5 4.4-6.8 6.9-10.1.3-.4 1-.5 1.4-.2.4.3.5 1 .2 1.4-2.4 3.2-4.7 6.5-6.8 9.9-.3.4-.6.5-.9.5ZM244.6 42c-.3 0-.5-.1-.7-.3-2.7-2.9-5.6-5.8-8.5-8.4-.4-.4-.4-1-.1-1.4.4-.4 1-.4 1.4-.1 3 2.7 5.9 5.6 8.7 8.6.4.4.3 1-.1 1.4-.3.2-.5.2-.7.2Zm-183.1-.1c-.2 0-.5-.1-.7-.3-.4-.4-.4-1-.1-1.4 2.7-3 5.7-5.9 8.7-8.6.4-.4 1-.3 1.4.1.4.4.3 1-.1 1.4-3 2.7-5.8 5.5-8.5 8.4-.1.3-.4.4-.7.4Zm165.1-16c-.2 0-.4-.1-.6-.2-3.2-2.4-6.6-4.6-10-6.6-.5-.3-.6-.9-.3-1.4.3-.5.9-.6 1.4-.3 3.5 2.1 6.9 4.3 10.2 6.7.4.3.5 1 .2 1.4-.3.3-.6.4-.9.4Zm-147.1-.1c-.3 0-.6-.1-.8-.4-.3-.4-.2-1.1.2-1.4 3.3-2.4 6.7-4.7 10.2-6.7.5-.3 1.1-.1 1.4.3.3.5.1 1.1-.3 1.4-3.4 2-6.8 4.3-10 6.6-.3.2-.5.2-.7.2Zm126.3-12.3c-.1 0-.3 0-.4-.1-3.6-1.7-7.3-3.2-11.1-4.6-.5-.2-.8-.8-.6-1.3.2-.5.8-.8 1.3-.6 3.8 1.3 7.6 2.9 11.3 4.6.5.2.7.8.5 1.3-.3.5-.6.7-1 .7Zm-105.5 0c-.4 0-.7-.2-.9-.6-.2-.5 0-1.1.5-1.3 3.7-1.7 7.5-3.3 11.3-4.6.5-.2 1.1.1 1.3.6.2.5-.1 1.1-.6 1.3-3.8 1.3-7.5 2.8-11.1 4.5-.2.1-.4.1-.5.1Zm82.7-8h-.2c-3.9-.9-7.8-1.7-11.8-2.3-.5-.1-.9-.6-.9-1.1.1-.5.6-.9 1.1-.9 4 .6 8 1.3 12 2.3.5.1.9.7.7 1.2 0 .5-.4.8-.9.8Zm-59.9 0c-.5 0-.9-.3-1-.8-.1-.5.2-1.1.7-1.2 3.9-1 8-1.7 12-2.3.5-.1 1.1.3 1.1.9.1.5-.3 1.1-.9 1.1-3.9.6-7.9 1.3-11.8 2.3h-.1Zm36-3.4c-1.5-.1-2.9-.1-4.3-.1h-3.6c-1.4 0-2.8 0-4.2.1-.6 0-1-.4-1-1s.4-1 1-1c1.4-.1 2.8-.1 4.2-.1h3.6c1.5 0 2.9 0 4.4.1.6 0 1 .5 1 1-.1.6-.6 1-1.1 1Z" fill="url(#d)"/><path d="M29 415h-6c-.6 0-1-.4-1-1s.4-1 1-1h5v-5c0-.6.4-1 1-1s1 .4 1 1v6c0 .6-.4 1-1 1Z" fill="url(#e)"/><path d="M12 427H6.3c-.6 0-1-.4-1-1s.4-1 1-1H12c.8 0 1.1 0 1.4-.1.3-.1.5-.3.7-.5.2-.2.4-.5.7-1.2l.6-1.1c.2-.5.8-.7 1.3-.4.5.2.7.8.4 1.3l-.6 1.1c-.4.8-.6 1.3-1.1 1.7-.4.4-.9.7-1.5.9-.5.3-1 .3-1.9.3Z" fill="url(#f)"/><path d="M1 440c-.6 0-1-.4-1-1v-6c0-.6.4-1 1-1s1 .4 1 1v6c0 .6-.4 1-1 1Z" fill="url(#g)"/><defs><linearGradient id="a" x1="0" y1="435.999" x2="306" y2="435.999" gradientUnits="userSpaceOnUse"><stop stop-color="#FFE5F2"/><stop offset="1" stop-color="#FFEFCC"/></linearGradient><linearGradient id="b" x1="54.054" y1="424.282" x2="305.055" y2="424.282" gradientUnits="userSpaceOnUse"><stop stop-color="#FFE5F2"/><stop offset="1" stop-color="#FFEFCC"/></linearGradient><linearGradient id="c" x1="0" y1="410.999" x2="306" y2="410.999" gradientUnits="userSpaceOnUse"><stop stop-color="#FFE5F2"/><stop offset="1" stop-color="#FFEFCC"/></linearGradient><linearGradient id="d" x1="0" y1="198.448" x2="306" y2="198.448" gradientUnits="userSpaceOnUse"><stop stop-color="#FFE5F2"/><stop offset="1" stop-color="#FFEFCC"/></linearGradient><linearGradient id="e" x1="0" y1="410.999" x2="306" y2="410.999" gradientUnits="userSpaceOnUse"><stop stop-color="#FFE5F2"/><stop offset="1" stop-color="#FFEFCC"/></linearGradient><linearGradient id="f" x1="5.267" y1="424.278" x2="218.509" y2="424.278" gradientUnits="userSpaceOnUse"><stop stop-color="#FFE5F2"/><stop offset="1" stop-color="#FFEFCC"/></linearGradient><linearGradient id="g" x1="0" y1="435.999" x2="306" y2="435.999" gradientUnits="userSpaceOnUse"><stop stop-color="#FFE5F2"/><stop offset="1" stop-color="#FFEFCC"/></linearGradient></defs></svg>