<svg width="32" height="32" viewBox="0 0 32 32" fill="none" xmlns="http://www.w3.org/2000/svg">
<path d="M0 16C0 2.824 2.824 0 16 0C29.176 0 32 2.824 32 16C32 29.176 29.176 32 16 32C2.824 32 0 29.176 0 16Z" fill="black"/>
<path fill-rule="evenodd" clip-rule="evenodd" d="M17.7556 31.9813C17.1918 31.994 16.6069 32 16 32C15.0176 32 14.0927 31.9843 13.2222 31.9498V20.8653H15.9422C17.8009 20.8653 19.4329 20.1954 20.7476 18.9001C22.0622 17.6049 22.7422 15.997 22.7422 14.1658C22.7422 12.3346 22.0622 10.7267 20.7476 9.43151C19.4329 8.13628 17.8009 7.46633 15.9422 7.46633C14.0836 7.46633 12.4516 8.13628 11.1369 9.43151C9.82222 10.7267 9.14222 12.3346 9.14222 14.1658V15.0591H4.60889V14.1658C4.60889 11.0841 5.69689 8.44892 7.91822 6.26042C10.1396 4.07192 12.8142 3 15.9422 3C19.0702 3 21.7449 4.07192 23.9662 6.26042C26.1876 8.44892 27.2756 11.0841 27.2756 14.1658C27.2756 16.9349 26.3689 19.3468 24.5556 21.4459C22.7422 23.5451 20.4756 24.7957 17.7556 25.1976V31.9813Z" fill="#FFEFCC"/>
<path fill-rule="evenodd" clip-rule="evenodd" d="M17.7556 31.9813C17.1918 31.994 16.6069 32 16 32C15.0176 32 14.0927 31.9843 13.2222 31.9498V20.8653H15.9422C17.8009 20.8653 19.4329 20.1954 20.7476 18.9001C22.0622 17.6049 22.7422 15.997 22.7422 14.1658C22.7422 12.3346 22.0622 10.7267 20.7476 9.43151C19.4329 8.13628 17.8009 7.46633 15.9422 7.46633C14.0836 7.46633 12.4516 8.13628 11.1369 9.43151C9.82222 10.7267 9.14222 12.3346 9.14222 14.1658V15.0591H4.60889V14.1658C4.60889 11.0841 5.69689 8.44892 7.91822 6.26042C10.1396 4.07192 12.8142 3 15.9422 3C19.0702 3 21.7449 4.07192 23.9662 6.26042C26.1876 8.44892 27.2756 11.0841 27.2756 14.1658C27.2756 16.9349 26.3689 19.3468 24.5556 21.4459C22.7422 23.5451 20.4756 24.7957 17.7556 25.1976V31.9813Z" fill="url(#paint0_linear_171_128)"/>
<defs>
<linearGradient id="paint0_linear_171_128" x1="15.9422" y1="4" x2="15.9422" y2="32" gradientUnits="userSpaceOnUse">
<stop stop-color="#FFE5F2"/>
<stop offset="1" stop-color="#FFE5F2" stop-opacity="0"/>
</linearGradient>
</defs>
</svg>
