<svg width="487" height="256" fill="none" xmlns="http://www.w3.org/2000/svg"><path d="m60.146 49.475-.341-.94.341.94Zm29.25-7.896-.207-.979.208.979Zm194.946-26.893v1-1Zm56.694 0 .11-.993-.055-.007h-.055v1Zm15.461 9.02.8-.6-.009-.013-.01-.012-.781.625Zm11.597 15.461-.8.6.047.064.057.054.696-.718Zm7.731 3.866-.172.985.085.015h.087v-1Zm16.75 0v-1 1Zm33.501 11.596.589-.807-.07-.052-.078-.038-.441.897Zm18.038 16.75-.779.627.006.008.773-.634Zm16.751 19.328-.738.675.072.078.087.062.579-.815Zm7.73 9.02.97-.246-.033-.129-.065-.115-.872.49Zm2.577 7.73-.93.366.04.103.063.092.827-.561Zm13.427 17.226.738-.675-.738.675Zm-2.213 4.004.305.952-.305-.952Zm-27.964-7.057-.707.708.707-.708Zm-131.425-10.307-.66.751.66-.751Zm12.885 9.019-.521.854.097.059.108.036.316-.949Zm42.52 30.924.894-.448-.894.448Zm3.266 9.073-.967.253.967-.253Zm.288 5.105-.988-.156.988.156Zm-9.996 11.022-.196-.98.196.98Zm-7.485-.919.385-.923-.385.923Zm-28.593-16.551.603-.797-.004-.003-.599.8Zm-28.347-19.327.517-.856-.034-.02-.036-.018-.447.894Zm-38.844-11.803-.27.962.27-.962Zm-70.677-34.582.803-.597-.025-.033-.027-.031-.751.66Zm63.165 33.45-.024 1 .024-1ZM218.63 3.09l.124-.992-.007-.001h-.007l-.11.993ZM99.245 36.779l-.637-.77.637.77Zm83.307 64.236-.533-.847-.008.006.541.841Zm302.301 25.466.895.447-.895-.447ZM441.8 176.105l-.487.873.487-.873Zm3.938 1.133.037-1-.037 1Zm7.277-3.384.925.381.161-.391-.169-.388-.917.398Zm-6.559-15.115.917-.398-.917.398Zm-1.704-8.207h1-1Zm0-3.501h-1 1Zm-1.248-6.101.92-.39-.92.39Zm-18.734 17.677 1 .011v-.011h-1Zm2.315 16.727.961-.279-.961.279Zm-6.882 4.076-.155.988.155-.988Zm-12.467-26.218.996-.09-.033-.364-.26-.258-.703.712Zm-16.57-25.509.948-.318-.124-.369-.34-.188-.484.875Zm34.959 50.241.533.846-.533-.846Zm-111.582-74.997-.664-.748-.796.707.755.75.705-.709Zm20.289-5.436.082-.996-.082.996Zm2.294 2.432-1 .03 1-.03Zm2.481 16.762.963.268.089-.319-.12-.309-.932.36Zm-1.067 3.84.931.365.019-.048.014-.049-.964-.268Zm27.837-18.238.94-.34-1.937.42.997-.08Zm-.843 11.745.981-.196-.981.196Zm.606 22.203-.996-.092-.029.322.164.279.861-.509Zm-26.357 42.745.906-.424-.906.424Zm3.921 4.73.49-.872-.49.872Zm1.695.736.313-.949-.313.949Zm2.87-1.281.889.458-.889-.458Zm7.004-11.63-.71-.704-.061.061-.049.071.82.572Zm11.177-69.046-.94.341.027.073.037.068.876-.482Zm-28.154 18.658-.316.949.901.3.346-.884-.931-.365Zm17.056 50.309.441-.897-.645-.317-.506.51.71.704Zm-17.111-10.691.974.227.15-.639-.528-.391-.596.803Zm86.529-2.411.915-.404-1.915.404h1Zm-59.182-46.692-.977-.211.977.211Zm47.603-28.686.629-.777-.28-.227-.361.004.012 1Zm-43.809-7.73.351-.937-.429-.161-.402.22.48.877Zm-37.366 0-.759-.652.759.651Zm15.462 48.961.322-.946-.006-.002-.316.948Zm50.922-20.06.361-.932-.361.932Zm1.655 2.077.99-.139-.99.139Zm19.341 37.118-.674.738.674-.738Zm.769 1.25.964-.266-.964.266Zm32.388 30.248-.877-.481.877.481Zm.028-1.986-.917.398.917-.398ZM308.824 26.282l-.141.99.043.007.043.002.055-.998Zm56.068 13.99.509-.86-.509.86Zm9.754 2.76v1-1ZM259.861 14.528l.398-.918-.398.918Zm103.094 81.2-.898.441.898-.44Zm-1.155-1.195.485-.874-.485.874ZM.876 83.465l.54.842a.266.266 0 0 1 .007-.005l.024-.015.097-.062a831.977 831.977 0 0 1 7.13-4.498A1183.08 1183.08 0 0 1 25.712 69.26c13.078-7.873 27.801-16.31 34.776-18.845l-.683-1.88c-7.199 2.618-22.11 11.177-35.124 19.011A1186.125 1186.125 0 0 0 .468 82.54l-.097.062-.025.016-.006.004-.002.001.538.843Zm59.612-33.05c9.526-3.464 22.017-6.35 29.117-7.858l-.416-1.957c-7.11 1.51-19.717 4.42-29.384 7.936l.683 1.88ZM340.925 15.68c3.445.383 5.9 1.04 8.09 2.314 2.201 1.28 4.217 3.229 6.701 6.336l1.562-1.249c-2.546-3.184-4.744-5.354-7.258-6.816-2.523-1.468-5.284-2.174-8.874-2.572l-.221 1.987Zm14.772 8.626 11.597 15.461 1.6-1.2-11.597-15.461-1.6 1.2Zm11.701 15.58c1.298 1.258 2.436 2.147 3.741 2.794 1.302.646 2.712 1.024 4.514 1.338l.344-1.97c-1.716-.3-2.913-.636-3.969-1.16-1.052-.521-2.021-1.258-3.238-2.438l-1.392 1.435Zm8.427 4.147h16.75v-2h-16.75v2Zm16.75 0c3.029 0 8.231 1.352 14.295 3.51 6.017 2.14 12.746 5.024 18.764 7.984l.883-1.795c-6.079-2.99-12.879-5.904-18.977-8.074-6.052-2.153-11.552-3.625-14.965-3.625v2Zm32.911 11.404c7.609 5.557 11.667 8.871 17.849 16.569l1.559-1.252c-6.33-7.883-10.538-11.316-18.229-16.932l-1.179 1.615Zm17.855 16.577c6.189 7.543 9.844 11.781 16.786 19.368l1.475-1.35c-6.917-7.56-10.548-11.77-16.715-19.287l-1.546 1.269Zm16.945 19.508c2.063 1.465 3.378 2.691 4.439 3.999 1.071 1.32 1.907 2.752 2.999 4.695l1.743-.98c-1.087-1.935-1.997-3.507-3.189-4.975-1.201-1.481-2.661-2.826-4.834-4.37l-1.158 1.631Zm7.34 8.45c.621 2.451 1.138 4.092 2.616 7.851l1.861-.732c-1.454-3.7-1.942-5.259-2.538-7.61l-1.939.49Zm2.719 8.046c4.999 7.382 8.066 11.383 13.516 17.34l1.476-1.35c-5.372-5.871-8.379-9.793-13.337-17.112l-1.655 1.122Zm11.736 19.716c-5.143 1.647-10.69 1.145-15.586-.397-4.905-1.544-9.049-4.097-11.366-6.414l-1.414 1.415c2.583 2.582 7.025 5.284 12.179 6.907 5.162 1.625 11.149 2.202 16.797.394l-.61-1.905Zm-26.952-6.811c-2.523-2.523-4.743-5.374-6.671-7.946-1.895-2.526-3.571-4.872-4.925-6.227l-1.414 1.414c1.222 1.223 2.768 3.386 4.739 6.013 1.937 2.583 4.227 5.53 6.857 8.161l1.414-1.415Zm-132.792-8.849c2.209 1.942 5.479 4.229 8.165 6.012a173.409 173.409 0 0 0 4.476 2.874l.283.174.074.046.019.012.005.003h.001l.001.001.521-.854.52-.854-.001-.001-.004-.002-.018-.011-.071-.044-.277-.17c-.241-.15-.59-.367-1.023-.64a176.517 176.517 0 0 1-3.4-2.2c-2.679-1.779-5.851-4.002-7.951-5.848l-1.32 1.502Zm44.468 25.018-.707.707v.001l.001.001.005.004.019.019.074.075.287.291a137.548 137.548 0 0 1 4.406 4.721c2.585 2.908 5.396 6.359 6.617 8.802l1.789-.895c-1.356-2.711-4.343-6.346-6.911-9.236a141.146 141.146 0 0 0-4.473-4.792l-.294-.299-.078-.078-.02-.02-.006-.006-.001-.001v-.001l-.708.707Zm10.702 14.621c1.517 3.033 2.585 6.555 3.194 8.879l1.935-.506c-.622-2.374-1.731-6.051-3.34-9.268l-1.789.895Zm3.461 13.575c-.568 3.607-1.584 5.848-3.022 7.327-1.437 1.477-3.414 2.318-6.182 2.871l.392 1.961c2.947-.588 5.383-1.545 7.223-3.438 1.839-1.891 2.963-4.591 3.565-8.41l-1.976-.311Zm-44.487-7.092c-10.929-8.179-17.13-12.564-28.429-19.383l-1.034 1.712c11.224 6.774 17.368 11.118 28.265 19.272l1.198-1.601Zm-28.499-19.421c-14.407-7.204-24.559-7.81-39.02-11.872l-.541 1.925c14.847 4.171 24.478 4.641 38.667 11.736l.894-1.789Zm-46.78-13.041c-15.914-.37-27.099-2.761-36.482-7.943-9.391-5.187-17.08-13.227-25.903-25.103l-1.606 1.192c8.882 11.956 16.777 20.268 26.542 25.662 9.774 5.398 21.319 7.817 37.402 8.192l.047-2ZM218.506 4.082c10.24 1.28 21.077 4.159 32.22 6.747 11.104 2.578 22.474 4.857 33.616 4.857v-2c-10.896 0-22.074-2.23-33.163-4.806-11.05-2.566-22.049-5.485-32.425-6.782l-.248 1.984ZM99.883 37.55C134.793 8.661 172.754-.976 218.52 4.084l.22-1.988c-46.24-5.113-84.757 4.64-120.132 33.912l1.275 1.541ZM183 101.91l15.461-7.73-.894-1.79-15.462 7.731.895 1.789ZM1.412 255.189c79.287-50.28 108.184-77.968 125.576-98.49 17.372-20.499 23.04-33.533 56.106-54.844l-1.083-1.681c-33.39 21.519-39.318 34.899-56.549 55.232C108.25 175.716 79.537 203.278.341 253.5l1.07 1.689Zm267.55-128.286a31.472 31.472 0 0 0-7.76-1.169l-.047 2c2.452.057 4.902.43 7.266 1.094l.541-1.925Zm102.802 48.583c-2.277.454-4.675.07-6.904-.862l-.771 1.846c2.505 1.047 5.312 1.527 8.067.977l-.392-1.961Zm8.937-14.894c.404 1.545.511 3.144.267 4.696l1.976.311c.291-1.849.159-3.727-.308-5.513l-1.935.506Zm103.16-35.234a.605.605 0 0 1 .098.676l1.789.894a2.605 2.605 0 0 0-.411-2.92l-1.476 1.35Zm.098.676c-.414.827-1.082 1.446-1.878 1.7l.61 1.905c1.391-.445 2.444-1.485 3.057-2.711l-1.789-.894ZM89.605 42.557c3.787-.804 7.304-2.547 10.278-5.008l-1.275-1.54c-2.735 2.262-5.96 3.857-9.419 4.591l.416 1.957ZM445.7 178.237c2.613.096 4.413-.135 5.712-.838 1.36-.736 2.005-1.897 2.527-3.164l-1.85-.762c-.469 1.14-.887 1.766-1.629 2.167-.804.435-2.147.692-4.686.598l-.074 1.999Zm8.231-4.781-6.559-15.115-1.834.797 6.559 15.114 1.834-.796Zm-8.18-22.924v-3.501h-2v3.501h2Zm1.621 7.809a19.62 19.62 0 0 1-1.621-7.809h-2c0 2.961.608 5.89 1.787 8.606l1.834-.797Zm-6.06 18.637c1.331.743 2.836 1.202 4.388 1.259l.074-1.999c-1.208-.044-2.406-.403-3.488-1.006l-.974 1.746Zm4.439-29.947a16.63 16.63 0 0 0-1.328-6.491l-1.841.781a14.629 14.629 0 0 1 1.169 5.71h2Zm-21.982 11.566c-.058 5.516.81 11.688 2.355 17.015l1.921-.557c-1.492-5.145-2.332-11.123-2.276-16.437l-2-.021Zm-3.412 19.825c-1.794-.281-3.265-.851-4.505-1.787-1.242-.937-2.31-2.285-3.231-4.21-1.862-3.892-3.049-9.986-3.89-19.323l-1.992.18c.842 9.346 2.047 15.76 4.078 20.006 1.025 2.144 2.277 3.772 3.83 4.944 1.555 1.173 3.353 1.846 5.4 2.166l.31-1.976Zm-11.919-25.942c-5.56-5.489-8.87-9.505-11.171-13.258-2.297-3.748-3.616-7.277-5.154-11.857l-1.896.636c1.547 4.609 2.924 8.317 5.345 12.267 2.419 3.945 5.852 8.089 11.471 13.636l1.405-1.424Zm17.154 24.598c-1.654 1.04-3.482 1.619-5.235 1.344l-.31 1.976c2.393.374 4.712-.433 6.61-1.628l-1.065-1.692Zm.532-1.466c.166.574-.061 1.169-.532 1.466l1.065 1.692c1.261-.793 1.791-2.324 1.388-3.715l-1.921.557Zm-110.918-71.937c2.741-2.434 5.303-3.899 8.298-4.68 3.017-.786 6.543-.896 11.244-.507l.165-1.993c-4.791-.397-8.577-.304-11.914.565-3.361.876-6.196 2.522-9.121 5.119l1.328 1.496Zm20.919-3.723c.191 6.459.03 10.574 2.548 17.094l1.865-.721c-2.373-6.144-2.22-9.903-2.413-16.432l-2 .06Zm2.517 16.466-1.066 3.839 1.927.536 1.066-3.84-1.927-.535Zm-3.894-17.93c.759.063 1.355.69 1.377 1.464l2-.059a3.508 3.508 0 0 0-3.212-3.398l-.165 1.993Zm29.805 15.74c1.314 6.561 1.506 11.929.59 21.915l1.992.183c.927-10.107.743-15.681-.621-22.49l-1.961.392Zm.011-2.566a6.302 6.302 0 0 0-.011 2.566l1.961-.392a4.302 4.302 0 0 1 .005-1.751l-1.955-.423Zm-21.351 72.919c.609.343 1.218.599 1.871.815l.627-1.899a8.434 8.434 0 0 1-1.518-.659l-.98 1.743Zm5.944-.958c2.329-4.53 3.996-7.301 6.936-11.516l-1.641-1.144c-2.99 4.288-4.703 7.135-7.073 11.745l1.778.915Zm-4.073 1.773c1.666.55 3.341-.35 4.073-1.773l-1.778-.915c-.354.689-1.079.983-1.668.789l-.627 1.899Zm-6.208-5.993c.917 1.965 2.246 4.002 4.337 5.178l.98-1.743c-1.552-.873-2.655-2.461-3.505-4.282l-1.812.847ZM284.342 15.686h56.694v-2h-56.694v2ZM391.65 126.808c-5.701-3.156-10.058-6.24-13.842-10.073-3.786-3.835-7.035-8.457-10.481-14.728l-1.753.964c3.502 6.372 6.854 11.161 10.811 15.169 3.958 4.01 8.485 7.202 14.296 10.418l.969-1.75Zm-26.213-24.18.073.202 1.881-.681-.074-.202-1.88.681Zm-51.599 1.008 8.454 8.396 1.41-1.419-8.455-8.396-1.409 1.419Zm21.728 17.655 2.414.805.633-1.898-2.415-.805-.632 1.898Zm2.043-1.131-.244.622 1.862.73.244-.622-1.862-.73Zm27.251 54.464c-3.469-1.45-6.402-2.755-9.067-4.065l-.882 1.794c2.713 1.334 5.686 2.657 9.178 4.117l.771-1.846Zm-8.877-2.385.079-.079-1.42-1.408-.079.079 1.42 1.408Zm-17.146-12.277c-.758-.562-1.54-1.149-2.352-1.763l-1.207 1.595c.816.617 1.604 1.208 2.368 1.774l1.191-1.606Zm-1.569.576c-.83 3.556-1.206 6.631-.977 9.654.23 3.03 1.064 5.952 2.586 9.211l1.812-.847c-1.442-3.086-2.196-5.773-2.403-8.515-.209-2.749.126-5.608.929-9.049l-1.947-.454Zm86.587-1.781c3.622 8.221 8.375 13.154 17.458 18.221l.974-1.746c-8.769-4.893-13.183-9.523-16.602-17.282l-1.83.807Zm1.915-.15v-.253h-2v.253h2Zm-58.344-22.299c.007.006-.012-.009-.056-.059a4.358 4.358 0 0 1-.369-.523l-1.722 1.018c.076.129.201.324.344.519.129.175.331.431.562.613l1.241-1.568Zm76.107-29.558c-1.245-1.245-7.81-6.68-14.388-12.07l-1.268 1.546c6.643 5.444 13.088 10.784 14.242 11.938l1.414-1.414Zm-15.996-11.072c4.255 18.394 7.951 28.916 15.046 45.643l1.841-.781c-7.058-16.64-10.714-27.051-14.939-45.312l-1.948.45Zm-62.157 6.689c.165 2.058.173 3.372.046 4.628-.128 1.271-.395 2.511-.815 4.456l1.955.422c.414-1.914.709-3.272.85-4.678.143-1.421.128-2.866-.042-4.988l-1.994.16Zm-.769 9.084-.046.211 1.955.423.046-.212-1.955-.422Zm0 0-.046.211 1.955.423.046-.212-1.955-.422Zm64.534-16.771a42.425 42.425 0 0 1-.245-.201l-1.268 1.547.245.2 1.268-1.546Zm.34.548-.105-.457-1.949.45.106.457 1.948-.45ZM.6 83.552l.538.843.001-.001a1203.485 1203.485 0 0 1 24.434-15.09c13.147-7.894 27.94-16.352 34.915-18.889l-.683-1.88c-7.198 2.618-22.179 11.198-35.262 19.054A1203.311 1203.311 0 0 0 .193 82.625l-.098.062-.024.016-.007.004-.001.001.537.844Zm442.933 23.198c-.685-.685-2.906-2.574-5.785-4.973-2.902-2.42-6.529-5.401-10.073-8.3-3.544-2.9-7.008-5.72-9.586-7.814l-3.101-2.518a841.018 841.018 0 0 0-1.09-.883l-.058-.047a.254.254 0 0 1-.015-.012l-.004-.003-.001-.001-.629.777-.629.777.001.001.003.003a.148.148 0 0 1 .015.012l.058.047.227.184.863.699 3.099 2.516a3577.89 3577.89 0 0 1 9.581 7.81 1548.98 1548.98 0 0 1 10.059 8.288c2.919 2.433 5.047 4.248 5.651 4.851l1.414-1.414Zm-30.354-24.774c-18.473.21-27.791-1.8-43.446-7.667l-.702 1.873c15.867 5.945 25.429 8.007 44.171 7.794l-.023-2Zm-44.277-7.608c-7.435 4.076-13.039 5.692-18.477 5.518-5.463-.174-10.886-2.156-17.978-5.543l-.862 1.804c7.134 3.408 12.874 5.55 18.776 5.738 5.929.19 11.895-1.593 19.502-5.763l-.961-1.754Zm-37.645.226c-3.726 4.347-8.391 6.846-12.92 9.272-4.46 2.39-8.893 4.752-11.634 8.863l1.664 1.11c2.414-3.62 6.356-5.768 10.915-8.21 4.49-2.406 9.489-5.06 13.494-9.733l-1.519-1.302Zm-23.722 18.69-.817.576.002.003.005.007.018.026.072.101.277.386c.242.336.595.82 1.04 1.422a172.124 172.124 0 0 0 3.645 4.741c2.972 3.727 6.881 8.293 10.56 11.528l1.32-1.502c-3.541-3.114-7.362-7.567-10.316-11.273a169.808 169.808 0 0 1-3.602-4.685 130.306 130.306 0 0 1-1.364-1.875l-.017-.024-.004-.006-.001-.001h-.001l-.817.576Zm28.031 28.007 11.596 3.865.632-1.897-11.596-3.866-.632 1.898Zm11.59 3.863c4.188 1.425 7.284 2.792 10.136 4.677 2.854 1.887 5.507 4.322 8.772 7.932l1.483-1.341c-3.323-3.676-6.104-6.244-9.152-8.259-3.05-2.016-6.323-3.449-10.595-4.902l-.644 1.893Zm17.704 49.47c-12.141-5.074-17.781-8.406-28.375-16.425l-1.207 1.595c10.719 8.113 16.504 11.532 28.811 16.676l.771-1.846ZM198.765 92.623c-3.327-3.777-6.51-7.91-9.588-12.003-3.069-4.082-6.043-8.14-8.918-11.714-2.874-3.572-5.694-6.72-8.477-8.98-2.773-2.253-5.627-3.72-8.557-3.72v2c2.258 0 4.669 1.139 7.296 3.272 2.616 2.124 5.329 5.139 8.179 8.682 2.849 3.54 5.788 7.55 8.879 11.662 3.082 4.1 6.304 8.284 9.685 12.123l1.501-1.322Zm-15.68 9.238c5.858-3.689 9.173-5.367 15.278-7.64l-.698-1.874c-6.247 2.325-9.684 4.068-15.646 7.821l1.066 1.693Zm177.424-22.243c12.545 12.1 21.479 19.258 37.531 25.462l.721-1.865c-15.703-6.07-24.415-13.03-36.863-25.037l-1.389 1.44Zm38.556 26.746c1.073 7.603 2.31 13.711 5.141 19.591 2.834 5.888 7.23 11.477 14.516 18.125l1.348-1.477c-7.17-6.543-11.375-11.932-14.062-17.515-2.691-5.59-3.896-11.445-4.963-19.003l-1.98.279Zm20.136 38.494c2.39 8.657 4.55 14.838 7.815 19.782 3.287 4.976 7.645 8.627 14.297 12.338l.974-1.746c-6.474-3.612-10.546-7.069-13.602-11.695-3.077-4.658-5.171-10.572-7.556-19.211l-1.928.532Zm26.5 33.379c2.235.082 3.866-.077 5.095-.554 1.296-.504 2.067-1.33 2.633-2.361l-1.753-.963c-.387.704-.829 1.158-1.604 1.46-.843.327-2.142.499-4.297.419l-.074 1.999Zm7.797-5.781-6.125-14.115-1.834.797 6.125 14.114 1.834-.796Zm-9.074-31.916c-7.117-16.778-10.774-27.223-15.044-45.769l-1.949.45c4.3 18.677 7.998 29.234 15.152 46.1l1.841-.781Zm9.005 34.782c.516-.94.441-2.01.069-2.866l-1.834.796c.183.422.167.826.012 1.107l1.753.963Zm-34.707-31.242c.227.207.398.486.479.778l1.928-.532a3.671 3.671 0 0 0-1.059-1.723l-1.348 1.477Zm-20.682-39c.551.213.943.706 1.025 1.284l1.98-.279a3.62 3.62 0 0 0-2.284-2.87l-.721 1.865Zm-89.727-12.425c-2.887-3.573-5.21-6.105-6.874-8.518-1.624-2.353-2.498-4.433-2.498-6.966h-2c0 3.078 1.092 5.552 2.851 8.102 1.718 2.49 4.193 5.209 6.965 8.64l1.556-1.258Zm24.463-16.76c.736-.858 2.043-2.154 3.473-3.282 1.471-1.162 2.9-2.008 3.905-2.18l-.338-1.972c-1.545.265-3.321 1.409-4.807 2.582-1.527 1.206-2.929 2.591-3.752 3.551l1.519 1.302Zm-24.007-48.614c24.341 1.346 37.142 2.952 55.615 13.853l1.017-1.723c-18.894-11.149-32.087-12.776-56.522-14.127l-.11 1.997Zm65.877 16.752h5.044v-2h-5.044v2ZM242.937 8.985c9.717 2.418 12.97 4.916 16.526 6.46l.796-1.836c-3.276-1.42-6.911-4.094-16.839-6.565l-.483 1.94Zm16.526 6.46c11.903 5.162 24.629 8.333 49.22 11.828l.281-1.98c-24.528-3.486-37.046-6.627-48.705-11.684l-.796 1.835Zm104.921 25.689c3.098 1.828 6.627 2.899 10.262 2.899v-2c-3.24 0-6.422-.956-9.245-2.622l-1.017 1.723Zm27.266 85.674c-6.632-3.671-11.449-7.247-15.664-12.026-4.224-4.791-7.882-10.834-12.134-19.495l-1.795.881c4.282 8.724 8.032 14.95 12.429 19.937 4.409 4.999 9.429 8.708 16.195 12.453l.969-1.75Zm-29.365-33.15c-2.625-1.458-4.043-2.965-6.065-4.575-2.014-1.602-4.406-3.093-8.683-4.23l-.514 1.933c3.983 1.058 6.13 2.413 7.951 3.862 1.812 1.442 3.523 3.194 6.341 4.758l.97-1.748Zm1.567 1.629a3.789 3.789 0 0 0-1.567-1.63l-.97 1.75c.328.182.591.453.742.761l1.795-.881Zm1.528 7.08c.168 2.095.173 3.419.039 4.696-.135 1.296-.415 2.569-.854 4.599l1.955.423c.431-1.993.739-3.386.888-4.813.152-1.446.139-2.904-.034-5.065l-1.994.16Zm-28.088 58.067c-.843 3.582-1.229 6.676-1.004 9.714.225 3.046 1.059 5.98 2.589 9.255l1.812-.847c-1.449-3.101-2.203-5.799-2.407-8.555-.204-2.763.141-5.64.957-9.109l-1.947-.458Z" fill="#DECEAB"/><path d="M484.406 125.747c.85 0 1.313-.994.765-1.644l-13.447-15.97-.673 5.612a8.728 8.728 0 0 0 2.445 7.161l3.71 3.772a3.575 3.575 0 0 0 2.55 1.069h4.65Zm-132.1 37.624c-.236 1.752.594 3.447 2.049 4.452 4.521 3.122 7.895 5.211 13.548 8.339a.26.26 0 0 0 .38-.177c1.506-7.492 2.914-11.021 7.116-14.895a.786.786 0 0 0 .02-1.144c-4.281-4.086-7.137-6.006-11.347-8.823-1.698-1.136-3.922-1.187-5.492.121-3.591 3.528-5.28 7.361-6.274 12.127Zm73.057-4.06-1.975.013-1.308 8.605-.002.025c-.22 2.18-.114 3.735.39 5.435.604 2.038 2.41 3.334 4.326 3.724l.146.03a1 1 0 0 0 1.186-1.143l-2.763-16.689Zm20.187-.873v6.318c0 .601.059 1.207.191 1.804.478 2.165.98 3.752 2.504 5.798.555.746 1.385 1.19 2.251 1.317l1.988.292a1 1 0 0 0 1.068-1.375l-6.08-14.54-1.922.386Z" opacity=".5" fill="#DECEAB"/></svg>