<svg width="438" height="438" fill="none" xmlns="http://www.w3.org/2000/svg"><path fill-rule="evenodd" clip-rule="evenodd" d="M438 204.22v-13.699c0-4.038 0-6.057-.786-7.599a7.204 7.204 0 0 0-3.151-3.151c-1.542-.786-3.561-.786-7.599-.786h-90.333c-6.726 0-10.088 0-11.997-1.409a7.207 7.207 0 0 1-2.901-5.173c-.206-2.364 1.548-5.233 5.055-10.971l50.222-82.145c1.693-2.77 2.54-4.155 2.756-5.6a7.206 7.206 0 0 0-.449-3.776c-.549-1.356-1.697-2.503-3.992-4.799l-11.42-11.42-9.686-9.686c-2.856-2.855-4.283-4.283-5.929-4.818a7.21 7.21 0 0 0-4.456 0c-1.647.535-3.074 1.963-5.929 4.818l-63.876 63.875c-4.755 4.756-7.133 7.134-9.479 7.487a7.212 7.212 0 0 1-5.71-1.607c-1.817-1.525-2.605-4.794-4.182-11.332L231.584 8.831c-.761-3.155-1.141-4.733-2.011-5.909A7.21 7.21 0 0 0 226.586.57C225.239 0 223.616 0 220.37 0h-29.849c-4.038 0-6.057 0-7.599.786a7.207 7.207 0 0 0-3.151 3.15c-.786 1.543-.786 3.562-.786 7.6v90.333c0 6.726 0 10.088-1.409 11.997a7.21 7.21 0 0 1-5.173 2.901c-2.364.206-5.233-1.548-10.971-5.056L79.287 61.49c-2.77-1.693-4.155-2.54-5.6-2.756a7.209 7.209 0 0 0-3.776.448c-1.356.55-2.503 1.698-4.799 3.993l-11.42 11.42-9.686 9.686c-2.855 2.855-4.283 4.283-4.818 5.93a7.21 7.21 0 0 0 0 4.455c.535 1.647 1.963 3.074 4.818 5.929l63.875 63.876c4.756 4.755 7.134 7.133 7.487 9.479a7.212 7.212 0 0 1-1.607 5.71c-1.525 1.817-4.794 2.605-11.332 4.182L8.831 206.416c-3.155.761-4.733 1.141-5.909 2.011a7.21 7.21 0 0 0-2.352 2.987C0 212.761 0 214.384 0 217.63v29.849c0 4.038 0 6.057.786 7.599a7.207 7.207 0 0 0 3.15 3.151c1.543.786 3.562.786 7.6.786h90.333c6.726 0 10.088 0 11.997 1.409a7.21 7.21 0 0 1 2.901 5.173c.206 2.364-1.548 5.233-5.056 10.971L61.49 358.713c-1.693 2.77-2.54 4.155-2.756 5.601a7.206 7.206 0 0 0 .448 3.775c.55 1.356 1.698 2.503 3.993 4.799l11.42 11.42 9.686 9.686c2.855 2.855 4.283 4.283 5.93 4.818 1.447.47 3.007.47 4.455 0 1.647-.535 3.074-1.963 5.929-4.818l63.876-63.875c4.755-4.756 7.133-7.134 9.479-7.487a7.212 7.212 0 0 1 5.71 1.607c1.817 1.525 2.605 4.794 4.182 11.332l22.574 93.598c.761 3.155 1.141 4.733 2.011 5.909a7.213 7.213 0 0 0 2.987 2.352c1.347.57 2.97.57 6.216.57h29.849c4.038 0 6.057 0 7.599-.786a7.204 7.204 0 0 0 3.151-3.151c.786-1.542.786-3.561.786-7.599v-90.333c0-6.726 0-10.088 1.409-11.997a7.21 7.21 0 0 1 5.173-2.901c2.364-.206 5.233 1.548 10.971 5.056l82.145 50.221c2.77 1.693 4.155 2.54 5.601 2.756a7.213 7.213 0 0 0 3.775-.448c1.356-.55 2.503-1.698 4.799-3.993l11.42-11.42 9.686-9.686c2.855-2.855 4.283-4.283 4.818-5.929a7.217 7.217 0 0 0 0-4.456c-.535-1.647-1.963-3.074-4.818-5.929l-63.875-63.876c-4.756-4.755-7.134-7.133-7.487-9.479a7.212 7.212 0 0 1 1.607-5.71c1.525-1.817 4.794-2.605 11.332-4.182l93.598-22.574c3.155-.761 4.733-1.141 5.909-2.011a7.213 7.213 0 0 0 2.352-2.987c.57-1.347.57-2.97.57-6.216v-16.15Zm0 0-113.737 27.43c-3.155.761-4.733 1.142-5.909 2.012a7.213 7.213 0 0 0-2.352 2.987c-.57 1.347-.57 2.97-.57 6.216v11.3c0 1.764 0 2.645-.199 3.475a7.223 7.223 0 0 1-.863 2.084c-.446.728-1.07 1.351-2.317 2.598l-6.257 6.258c-2.855 2.855-4.283 4.282-4.818 5.929a7.217 7.217 0 0 0 0 4.456c.535 1.646 1.963 3.073 4.818 5.929l78.512 78.511-99.821-61.027c-2.769-1.694-4.154-2.54-5.6-2.757a7.229 7.229 0 0 0-3.776.449c-1.355.55-2.503 1.697-4.798 3.993l-7.991 7.99c-1.247 1.247-1.87 1.871-2.598 2.317a7.223 7.223 0 0 1-2.084.863c-.83.199-1.711.199-3.475.199h-8.849c-4.038 0-6.057 0-7.599.786a7.204 7.204 0 0 0-3.151 3.151c-.786 1.542-.786 3.561-.786 7.599V438l-27.43-113.737c-.761-3.155-1.142-4.733-2.012-5.909a7.213 7.213 0 0 0-2.987-2.352c-1.347-.57-2.97-.57-6.216-.57h-11.3c-1.764 0-2.645 0-3.475-.199a7.223 7.223 0 0 1-2.084-.863c-.728-.446-1.351-1.07-2.598-2.317l-6.258-6.257c-2.855-2.855-4.282-4.283-5.929-4.818a7.217 7.217 0 0 0-4.456 0c-1.646.535-3.073 1.963-5.929 4.818l-78.511 78.512 61.027-99.821c1.694-2.769 2.54-4.154 2.757-5.6a7.229 7.229 0 0 0-.449-3.776c-.55-1.355-1.697-2.503-3.993-4.798l-7.99-7.991c-1.247-1.247-1.871-1.87-2.317-2.598a7.223 7.223 0 0 1-.863-2.084c-.199-.83-.199-1.711-.199-3.475v-8.849c0-4.038 0-6.057-.786-7.599a7.204 7.204 0 0 0-3.151-3.151c-1.542-.786-3.561-.786-7.599-.786H0l113.737-27.43c3.155-.761 4.733-1.142 5.909-2.012a7.213 7.213 0 0 0 2.352-2.987c.57-1.347.57-2.97.57-6.216v-11.3c0-1.764 0-2.645.199-3.475a7.223 7.223 0 0 1 .863-2.084c.446-.728 1.07-1.351 2.317-2.598l6.257-6.258c2.855-2.855 4.283-4.282 4.818-5.929a7.217 7.217 0 0 0 0-4.456c-.535-1.646-1.963-3.073-4.818-5.929L53.692 74.595l99.821 61.027c2.769 1.694 4.154 2.54 5.6 2.757 1.276.19 2.58.035 3.776-.449 1.355-.55 2.503-1.697 4.798-3.993l7.991-7.99c1.247-1.247 1.87-1.871 2.598-2.317a7.223 7.223 0 0 1 2.084-.863c.83-.199 1.711-.199 3.475-.199h8.849c4.038 0 6.057 0 7.599-.786a7.204 7.204 0 0 0 3.151-3.151c.786-1.542.786-3.561.786-7.599V0l27.43 113.737c.761 3.155 1.142 4.733 2.012 5.909a7.207 7.207 0 0 0 2.987 2.352c1.347.57 2.97.57 6.216.57h11.3c1.764 0 2.645 0 3.475.199a7.223 7.223 0 0 1 2.084.863c.728.446 1.351 1.07 2.598 2.317l6.258 6.257c2.855 2.855 4.282 4.283 5.929 4.818 1.448.47 3.007.47 4.456 0 1.646-.535 3.073-1.963 5.929-4.818l78.511-78.512-61.027 99.821c-1.694 2.769-2.54 4.154-2.757 5.6a7.208 7.208 0 0 0 .449 3.776c.55 1.355 1.697 2.503 3.993 4.798l7.99 7.991c1.247 1.247 1.871 1.87 2.317 2.598.395.645.686 1.348.863 2.084.199.83.199 1.711.199 3.475v8.849c0 4.038 0 6.057.786 7.599a7.204 7.204 0 0 0 3.151 3.151c1.542.786 3.561.786 7.599.786H438Z" fill="url(#a)"/><defs><linearGradient id="a" x1="438" y1="219" x2="0" y2="219" gradientUnits="userSpaceOnUse"><stop stop-color="#FFE5F2"/><stop offset="1" stop-color="#FFEFCC"/></linearGradient></defs></svg>