<svg width="306" height="440" fill="none" xmlns="http://www.w3.org/2000/svg"><path d="M306 428.2V440H0v-11.8c0-1.12 0-1.68.218-2.108.192-.376.498-.682.874-.874C1.52 425 2.08 425 3.2 425h8.822c.718 0 1.077 0 1.394-.109a2.01 2.01 0 0 0 .747-.462c.24-.235.4-.556.721-1.198l4.232-8.462c.32-.642.481-.963.72-1.198a2.01 2.01 0 0 1 .748-.462c.317-.109.676-.109 1.394-.109H28V125c0-.928 0-1.393.003-1.785C28.433 55.345 83.344.432 151.215.002 151.607 0 152.072 0 153 0c.928 0 1.393 0 1.785.002 67.87.43 122.783 55.343 123.212 123.213.003.392.003.857.003 1.785v288h6.022c.718 0 1.077 0 1.394.109.28.097.536.255.747.462.24.235.4.556.721 1.198l4.232 8.462c.321.642.481.963.721 1.198.211.207.467.365.747.462.317.109.676.109 1.394.109h8.822c1.12 0 1.68 0 2.108.218.376.192.682.498.874.874.218.428.218.988.218 2.108Z" fill="#000"/></svg>