<svg width="306" height="440" fill="none" xmlns="http://www.w3.org/2000/svg"><path d="M0 432.061V440h306v-7.939c0-3.443 0-5.165-.829-6.573-.829-1.409-2.333-2.245-5.343-3.917l-7.713-4.285c-2.007-1.115-3.01-1.672-3.562-2.611-.553-.939-.553-2.087-.553-4.382v-71.322c0-2.453 0-3.679-.457-4.782-.456-1.102-1.324-1.97-3.058-3.704l-2.97-2.97c-1.734-1.734-2.602-2.602-3.058-3.704-.457-1.103-.457-2.329-.457-4.782V179C278 35 153 0 153 0S28 35 28 179v140.029c0 2.453 0 3.679-.457 4.782-.456 1.102-1.323 1.97-3.058 3.704l-2.97 2.97c-1.735 1.734-2.602 2.602-3.058 3.704-.457 1.103-.457 2.329-.457 4.782v71.322c0 2.295 0 3.443-.552 4.382-.553.939-1.556 1.496-3.563 2.611l-7.713 4.285c-3.01 1.672-4.514 2.508-5.343 3.917C0 426.896 0 428.618 0 432.061Z" fill="#000"/></svg>