<svg width="306" height="440" fill="none" xmlns="http://www.w3.org/2000/svg"><path d="M272.6 330c2.24 0 3.36 0 4.216.436a3.991 3.991 0 0 1 1.748 1.748c.436.856.436 1.976.436 4.216V385h5.349c.978 0 1.468 0 1.928.111.408.098.798.259 1.156.478.404.248.75.594 1.442 1.286l5.25 5.25c.692.692 1.038 1.038 1.286 1.442.219.358.38.748.478 1.156.111.46.111.95.111 1.928v4.373c0 1.467 0 2.201.166 2.891.147.613.389 1.198.718 1.735.371.605.89 1.124 1.928 2.162l4.376 4.376c1.038 1.038 1.557 1.557 1.928 2.162.329.537.571 1.122.718 1.735.166.69.166 1.424.166 2.891V440H0v-21.024c0-1.467 0-2.201.166-2.891.147-.613.39-1.198.718-1.735.371-.605.89-1.124 1.928-2.162l4.376-4.376c1.038-1.038 1.557-1.557 1.928-2.162a5.997 5.997 0 0 0 .718-1.735c.166-.69.166-1.424.166-2.891v-4.373c0-.978 0-1.468.11-1.928.099-.408.26-.798.48-1.156.247-.404.593-.75 1.284-1.442l5.251-5.25c.692-.692 1.038-1.038 1.442-1.286.358-.219.748-.38 1.156-.478.46-.111.95-.111 1.928-.111H27v-48.6c0-2.24 0-3.36.436-4.216a3.996 3.996 0 0 1 1.748-1.748C30.04 330 31.16 330 33.4 330H40L10.779 75.778c-.28-2.44-.42-3.66-.135-4.748a5.999 5.999 0 0 1 1.416-2.571c.767-.823 1.873-1.357 4.084-2.424L148.828 2.013c1.532-.74 2.298-1.109 3.099-1.254a5.998 5.998 0 0 1 2.146 0c.801.145 1.567.515 3.099 1.254l132.684 64.022c2.211 1.067 3.317 1.6 4.084 2.424a5.987 5.987 0 0 1 1.416 2.571c.286 1.088.145 2.308-.135 4.748L266 330h6.6Z" fill="#000"/></svg>