<svg width="1081" height="443" fill="none" xmlns="http://www.w3.org/2000/svg"><path fill-rule="evenodd" clip-rule="evenodd" d="M75.003 5H0v74.284c0-22.235 6.544-40.09 19.632-53.565C32.72 11.906 51.177 5 75.003 5ZM149 5v229.421H78.527V70.188h-3.524c-3.02 0-4.53 3.032-4.53 9.096v239.023h3.524c3.02 0 4.53-2.864 4.53-8.591v-67.209H149v67.209c0 22.235-6.544 40.258-19.632 54.071C116.28 377.262 97.655 384 73.493 384H160V5h-11Zm89.764 379h-8.528v-75.8h8.528V384ZM320 384h-11V267.773h-17.559c11.372-13.475 17.057-29.477 17.057-48.006V5h86.505c-23.826 0-42.283 6.906-55.371 20.719C326.544 39.194 320 57.049 320 79.284V384Zm73.493 0H480V5h-11v304.716c0 22.235-6.544 40.258-19.632 54.071C436.28 377.262 417.655 384 393.493 384ZM640 384h-89.527v-25.267h5.034c21.477 0 39.095-6.906 52.854-20.718C622.12 324.202 629 307.021 629 286.471V5h86.003c-23.826 0-42.283 6.906-55.371 20.719C646.544 39.194 640 57.049 640 79.284V384Zm73.493 0H789v-74.284c0 22.235-6.544 40.258-19.632 54.071C756.28 377.262 737.655 384 713.493 384ZM230.236 5h8.027v230.432c0 4.716-1.171 7.075-3.512 7.075h-4.515V5Zm163.761 313.307h-3.524V79.284c0-6.064 1.51-9.096 4.53-9.096h3.524v239.528c0 5.727-1.51 8.591-4.53 8.591Zm156.476-25.267h4.53c2.349 0 3.524-2.358 3.524-7.075V70.188h-8.054V293.04Zm163.524 25.267h-3.524V79.284c0-6.064 1.51-9.096 4.53-9.096h3.524v239.528c0 5.727-1.51 8.591-4.53 8.591Z" fill="#FFE6F2"/><path d="M941.743 384v-26.4h-115.92v-3.017h115.92v-26.4h-140V384h140Zm0-58.555h-112.56c-8.213 0-14.809-2.452-19.786-7.355-5.103-4.902-7.654-11.817-7.654-20.742v-27.72h112.56c8.213 0 14.871 2.451 19.973 7.354 4.978 4.903 7.467 11.88 7.467 20.932v27.531Zm-24.267-26.4v-1.32c0-1.131-1.057-1.697-3.173-1.697h-88.48v1.32c0 1.131 1.12 1.697 3.36 1.697h88.293Zm-3.733-61.77v3.206h28v26.4h-140v-26.4h87.734v-1.697c0-.88-.872-1.32-2.614-1.32h-85.12v-26.4h79.333c6.845 0 12.756 2.137 17.734 6.411v-6.6h42.933v26.4h-28Zm-87.92-55.906v-3.017l63.653-.001v3.018h-63.653Zm115.92-3.018v-26.399h-140v55.816h140v-26.399h-28v-3.018h28Zm0-55.726v26.4H918.41c-7.965 0-14.498-2.766-19.6-8.298v8.298h-97.067v-26.4h87.733v-3.017h-87.733v-26.4h87.733V91.51c0-.88-.871-1.32-2.613-1.32h-85.12v-26.4h77.467c3.858 0 7.466.754 10.826 2.263a27.291 27.291 0 0 1 8.774 6.223V63.79h42.933v26.4h-28v3.017h28v26.4h-28v1.697c0 .88.871 1.32 2.613 1.32h25.387Zm0-61.808H916.73v-27.72c0-1.132-.809-1.697-2.427-1.697h-.56v29.417h-112v-26.4h87.733V31.4h-87.733V5h112.56c7.965 0 14.56 2.451 19.787 7.354 5.102 4.903 7.653 11.88 7.653 20.931v27.532Zm22.695 68.157L953.927 8.827l48.633-4.254 7.8 89.228c.57 6.515-1.19 12.158-5.3 16.93-4.11 4.771-9.668 7.464-16.678 8.077l-1.643.144.7 8.009-23.001 2.013Zm20.479-30.848 1.478-.13c.767-.066 1.085-.847.954-2.343l-5.984-68.403-2.629.23 6.181 70.646Zm45.443-75.162 2.62-.23 4.78 54.627-2.63.23-4.77-54.627Zm11.33 99.251 23-2.012L1054.18.056l-48.63 4.255 10.51 120.147 23-2.013-2.1-24.029 2.63-.23 2.1 24.029Zm-62.833 130.746-24.019-1.68 8.413-120.312 48.699 3.406-1.5 21.495-25.67-1.794-.179 2.566 25.669 1.795-5.09 72.668c-.49 7.058-3.03 12.63-7.612 16.716-4.577 3.979-10.814 5.692-18.711 5.14Zm.472-20.923 1.151.08c.987.069 1.544-.805 1.672-2.623l3.623-51.815-2.632-.184-3.814 54.542Zm27.201 22.858 6.76-96.731c.5-7.058 3.03-12.577 7.61-16.555 4.58-4.086 10.77-5.856 18.55-5.312l24.19 1.691-6.77 96.731c-.49 7.058-3.03 12.63-7.61 16.716-4.58 3.978-10.82 5.692-18.71 5.139l-24.02-1.679Zm24.49-19.244 1.15.081c.99.069 1.54-.806 1.67-2.624l5.32-76.037-1.15-.08c-.99-.069-1.55.859-1.69 2.784l-5.3 75.876Zm-38.143 48.232-1.127-21.519L943 264.92l1.128 21.519 11.861-.622 5.185 98.922 25.026-1.312-5.184-98.922 11.861-.621Zm32.213 97.505-24.03 1.259-6.314-120.44 23.694-1.242.42 8.029 25.06-1.313 4.68 89.447c.35 6.531-1.68 12.112-6.08 16.744-4.39 4.632-10.2 7.137-17.43 7.516Zm-1.42-20.698 1.52-.08c.79-.042 1.15-.812 1.07-2.311l-3.59-68.57-2.71.142 3.71 70.819Zm51.95 18.05-22.95 1.202-6.31-120.44 22.94-1.202 6.32 120.44ZM465.6 435h2v-14h-.4l-10.6 9.84V421h-2v14h.4l10.6-9.86V435Zm18.491-14h-9.7v5.4c.04 4.16-.7 6.08-1.64 6.68-.62.42-1.56.38-1.96.14v1.88l.12.08c.16.1.6.22 1.08.22 1.28.04 2.56-.56 3.46-2.54.56-1.28.94-3.52.94-6.46V423h5.7v12h2v-14Zm15.208 14h2v-14h-.4l-10.6 9.84V421h-2v14h.4l10.6-9.86V435Zm24.792-14h-2v6h-8.6v-6h-2v14h2v-6h8.6v6h2v-14Zm6.2 6v-4h6.2v-2h-8.2v14h8.2v-2h-6.2v-4h6.2v-2h-6.2Zm9.392-4h4.2v12h2v-12h4.2v-2h-10.4v2Z" fill="#FFE6F2"/><path d="M627.658 421.737h-6.632l-5.895 12.526h-11.052" stroke="#FFE6F2" stroke-width="2"/><path d="m602.142 421.292-.555-.833 1.664-1.109.555.832-1.664 1.11Zm1.664 15.473-.555.832-1.664-1.109.555-.832 1.664 1.109Zm-.832-16.028.832-.554.001.002a.242.242 0 0 1 .01.015l.024.037.082.131c.068.112.162.272.274.477.223.409.517.998.81 1.731.585 1.461 1.177 3.524 1.177 5.898h-2c0-2.048-.513-3.853-1.034-5.155a14.102 14.102 0 0 0-.709-1.516 9.072 9.072 0 0 0-.299-.51l-.002-.003h.001v.001s.001.001.833-.554Zm3.21 7.737c0 2.373-.592 4.436-1.177 5.897a16.22 16.22 0 0 1-.81 1.731 11.408 11.408 0 0 1-.356.608l-.024.037-.007.012-.003.004-.001.001v.001l-.832-.555-.833-.554v.001h-.001l.002-.003.013-.02a7.992 7.992 0 0 0 .286-.49c.191-.35.45-.867.709-1.515.521-1.302 1.034-3.108 1.034-5.155h2Zm-20.142-4.447c.895 1.405 1.235 2.183 1.552 3.772l1.961-.391c-.371-1.863-.816-2.87-1.826-4.456l-1.687 1.075Zm3.963-1.136c.895 1.405 1.235 2.183 1.552 3.772l1.962-.392c-.372-1.862-.817-2.869-1.827-4.455l-1.687 1.075Zm-1.033 10.793.001 1h.043l.093-.003a9.716 9.716 0 0 0 1.403-.18 10.24 10.24 0 0 0 3.271-1.272c2.458-1.5 4.77-4.451 4.77-10.018h-2c0 4.906-1.979 7.192-3.812 8.311a8.237 8.237 0 0 1-3.714 1.161l-.05.001h-.009.003l.001 1Zm-4.482-12.392.555-.833-1.664-1.109-.555.832 1.664 1.11Zm-1.664 15.473.555.832 1.664-1.109-.555-.832-1.664 1.109Zm.832-16.028-.832-.554h-.001l-.001.002-.002.004-.008.011-.024.037-.081.131c-.068.112-.163.272-.274.477a16 16 0 0 0-.811 1.731c-.584 1.461-1.177 3.524-1.177 5.898h2c0-2.048.513-3.853 1.034-5.155a14.3 14.3 0 0 1 .709-1.516 10.267 10.267 0 0 1 .286-.49l.013-.02.002-.003v.001h-.001l-.832-.554Zm-3.211 7.737c0 2.373.593 4.436 1.177 5.897a16 16 0 0 0 .811 1.731 10.373 10.373 0 0 0 .355.608l.024.037.008.012.002.004.001.001.001.001.832-.555.832-.554.001.001s0 .001 0 0l-.002-.003-.013-.02a8.967 8.967 0 0 1-.286-.49c-.191-.35-.449-.867-.709-1.515-.521-1.302-1.034-3.108-1.034-5.155h-2Z" fill="#FFE6F2"/><path d="M559.974 421.737h5.631l5.895 12.526h11.053" stroke="#FFE6F2" stroke-width="2"/></svg>