<svg width="468" height="300" fill="none" xmlns="http://www.w3.org/2000/svg"><path d="M467.874 160.988c-67.204-1.229-110.757-12.028-136.779-7.131-1.615 6.047-3.481 9.248-11.342 14.067-3.911 5.51-8.678 9.095-18.668 15.775-10.101 15.281-20.779 18.314-35.494 26.029-4.876 5.542-14.66 7.048-34.443 9.203-.354 8.81-2.359 12.292-7.362 17.353 1.02 6.057 1.262 9.49-2.103 16.038 0 0 3.44 5.507 3.44 11.84 0 15.112-14.266 14.829-14.266 14.829-7.021-1.29-8.558-8.657-11.537-21.124-1.581-5.782-2.256-9.398-2.844-14.831a11.68 11.68 0 0 1 .436-4.702c3.529-11.447 7.956-18.317 6.47-28.606-1.153-1.539-2.004-1.895-4.062-1.749-6.361 11.941-10.499 16.87-18.223 24.609-1.582 13.063-3.707 18.873-8.776 27.662 0 0 .954 3.791.954 9.347.302 8.088-1.495 13.478-3.624 16.215-2.13 2.738-4.159 4.388-9.157 4.388-3.355-.383-4.985-.813-7.44-1.908v-1.108c-5.602 4.532-9.416 6.59-15.298 6.797-7.419-1.304-7.722-6.119-8.996-15.688-.393-7.727-6.326-16.23-7.38-27.106-1.055-10.877 3.264-15.917.282-29.259l-.235-.728c-13.475-4.341-18.197-10.22-16.222-18.899.562-2.468 2.453-4.349 4.672-5.565 11.056-6.063 17.206-12.158 26.134-17.479l.121-.337c2.019-6.191 3.348-9.573 8.086-14.536.198-1.593.085-2.253-.636-2.998-8.58-3.177-11.544-5.954-17.352-10.629-17.659.232-26.424-.935-41.427-3.725-12.055 4.639-19.324 5.738-32.706 6.45-15.053 9.747-26.613 10.247-41.881 6.36-4.287-1.434-6.662-3.644-7.815-5.045a4.393 4.393 0 0 1-1.013-2.912c.053-1.823.756-3.031 1.58-4.141a9.372 9.372 0 0 1 1.825-1.871c5.808-4.426 12.779-5.242 21.12-11.157a5.636 5.636 0 0 1 2.065-.914c21.228-4.531 23.554-9.621 34.128-14.776l30.076-4.463c2.278-.338 4.591-.359 6.881-.116 16.18 1.717 26.134.774 42.716-6.28 23.534 1.058 31.638-9.089 56.937-23.162a15.133 15.133 0 0 1 2.736-1.18l44.797-14.327a61.86 61.86 0 0 1 10.092-2.317l14.403-2.057c26.261-7.088 24.119-15.963 72.877-22.338C373.6 24.705 422.014 26.516 467.874 9v151.988Z" fill="#000"/></svg>