<svg width="486" height="256" fill="none" xmlns="http://www.w3.org/2000/svg"><path fill-rule="evenodd" clip-rule="evenodd" d="M1 83.665s45.097-28.836 59.27-33.99c9.596-3.489 22.146-6.388 29.25-7.896 3.624-.77 6.995-2.438 9.849-4.8C134.512 7.9 172.75-1.796 218.754 3.29c20.615 2.577 43.673 11.597 65.712 11.597h56.693c7.035.78 10.431 2.727 15.462 9.019l11.597 15.462c2.515 2.439 4.213 3.251 7.73 3.865h16.751c6.442 0 21.404 5.648 33.5 11.597 7.651 5.586 11.783 8.96 18.039 16.75 6.178 7.53 9.821 11.754 16.75 19.327 4.237 3.009 5.553 5.142 7.731 9.02.609 2.4 1.111 4.001 2.577 7.73 4.979 7.351 8.016 11.312 13.427 17.226.447.49.55 1.205.254 1.798-.513 1.027-1.374 1.856-2.467 2.206-10.792 3.454-23.065-2.157-27.964-7.056-5.154-5.154-9.019-11.597-11.596-14.174-1.2-1.199-7.705-6.587-14.315-12.004 4.24 18.328 7.915 28.794 14.993 45.477a15.643 15.643 0 0 1 1.248 6.101v3.502c0 2.823.58 5.617 1.704 8.207l6.559 15.114c-.992 2.407-2.125 3.574-7.277 3.384-1.38-.051-2.732-.46-3.938-1.133-8.927-4.979-13.51-9.761-17.03-17.751v.253c-.057 5.416.797 11.49 2.315 16.727.285.982-.094 2.045-.96 2.59-1.776 1.118-3.849 1.811-5.922 1.486-7.682-1.202-10.785-7.535-12.467-26.218-11.179-11.036-13.485-16.32-16.571-25.509-11.512-6.372-17.767-12.551-24.715-25.194l-.073-.202c.335 4.181.046 5.516-.789 9.375l-.046.212a5.317 5.317 0 0 0-.008 2.158c1.339 6.685 1.527 12.156.606 22.203.122.207.427.669.665.857 0 0 9.019 9.02 11.596 14.174 1.563 3.125 2.652 6.724 3.267 9.073.436 1.666.555 3.404.288 5.105-1.169 7.425-4.282 9.882-9.996 11.023-2.516.502-5.119.07-7.486-.92-3.48-1.455-6.433-2.769-9.122-4.091l-.079.079c-2.964 4.252-4.655 7.061-7.004 11.631-.543 1.056-1.743 1.653-2.871 1.281a9.374 9.374 0 0 1-1.694-.737c-1.821-1.024-3.037-2.837-3.922-4.73-2.963-6.346-3.173-11.218-1.541-18.215a277.795 277.795 0 0 1-2.359-1.768c-10.913-8.167-17.086-12.531-28.347-19.328-14.299-7.149-24.189-7.687-38.844-11.803a30.461 30.461 0 0 0-7.512-1.132c-31.998-.745-45.46-9.618-63.165-33.45l-15.462 7.731C116.221 144.045 159.483 154.043 1 254.544V83.665Zm335.006 36.877s-8.577-5.231-12.885-9.019l-8.454-8.396c5.665-5.031 10.796-6.22 20.289-5.436a2.509 2.509 0 0 1 2.294 2.432c.192 6.494.035 10.43 2.48 16.763l-1.066 3.839-.244.622-2.414-.805Z" fill="#000"/></svg>