<svg width="469" height="300" fill="none" xmlns="http://www.w3.org/2000/svg"><path d="M19.337 136.38 1.584 147.781c-.407.26-.733.812-.514 1.424.231.646.878.848 1.375.75 1.075-.212 2.78-.657 4.346-1.185a22.238 22.238 0 0 0 2.203-.857c.544-.252 1.102-.556 1.495-.913.608-.322 1.36-.86 2.152-1.485a54.923 54.923 0 0 0 2.832-2.427c1.954-1.78 3.952-3.791 5.166-5.219l-1.302-1.489Zm112.67 55.795c-1.547-.611-3.221-.627-4.763-.26l-.666.159c-6.861 1.634-10.848 2.583-17.594 6.021a1.512 1.512 0 0 0-.533 2.24c4.707 6.397 9.745 9.655 16.972 14.207 1.392.877 3.229.698 4.403-.491 2.694-2.729 4.408-4.856 5.736-6.976 1.322-2.112 2.241-4.186 3.357-6.755.516-1.187.371-2.616-.518-3.645-1.803-2.088-3.542-3.372-6.394-4.5Z" opacity=".5" fill="#FFE6F2"/><path d="m331.095 152.858-.185-.983-.619.117-.162.608.966.258Zm-11.342 14.067-.523-.853-.174.107-.118.167.815.579ZM301.085 182.7l-.555-.831-.168.112-.111.167.834.552Zm-35.494 26.029-.464-.885-.164.086-.123.139.751.66Zm-34.443 9.202-.108-.994-.857.094-.034.86.999.04Zm-7.362 17.353-.711-.703-.36.364.085.505.986-.166Zm-2.103 16.039-.889-.457-.26.505.301.481.848-.529Zm-10.826 26.669-.181.983.08.015.081.002.02-1Zm-11.537-21.125.972-.232-.003-.016-.005-.015-.964.263Zm-2.844-14.831-.994.108.994-.108Zm.436-4.701.955.294-.955-.294Zm6.47-28.606.99-.143-.037-.252-.152-.204-.801.599Zm-4.062-1.749-.071-.997-.552.039-.26.488.883.47Zm-18.223 24.609-.708-.706-.244.244-.041.342.993.12Zm-8.775 27.661-.867-.499-.202.351.099.392.97-.244Zm.953 9.348h-1v.019l.001.018.999-.037Zm-12.781 20.603-.114.993.057.007h.057v-1Zm-7.44-1.908h-1v.649l.593.264.407-.913Zm-.954-22.129.999-.045-.008-.185-.074-.17-.917.4Zm-.336-.771.916-.4-.916.4Zm-.501-15.251-.94-.339.94.339Zm1.791-4.962.941.339.074-.205-.018-.216-.997.082Zm0-18.886-.933-.361-.051.134-.012.144.996.083Zm9.107-15.061-.568-.823.568.823Zm-9.107 75.951h1v-.022l-.001-.023-.999.045Zm-15.298 6.798-.174.985.104.018.105-.004-.035-.999Zm-8.996-15.688-.999.051.002.04.006.041.991-.132Zm15.458-113.909.723.69.229-.239.04-.328-.992-.123Zm-.636-2.998.719-.696-.158-.163-.214-.079-.347.938Zm-17.352-10.63.627-.779-.28-.225-.36.005.013.999Zm-41.427-3.724.183-.983-.278-.052-.264.101.359.934Zm-32.706 6.45-.053-.999-.266.015-.224.145.543.839Zm-41.881 6.359-.317.949.035.011.035.009.247-.969ZM2.4 153.797l.772-.635-.772.635Zm-1.013-2.911-1-.029 1 .029Zm1.58-4.141.803.596-.803-.596Zm1.825-1.871-.606-.795.606.795Zm21.12-11.157-.579-.816.579.816Zm2.065-.914-.209-.978.209.978Zm34.129-14.776-.147-.99-.153.023-.139.068.439.899Zm30.075-4.463-.147-.989.147.989Zm6.881-.116.106-.995-.106.995Zm40.825-5.49-.379-.926.379.926Zm3.94-.726.017-.999-.017.999Zm54.888-23.226.487.874-.487-.874Zm2.736-1.18-.305-.953.305.952Zm44.797-14.327-.304-.952.304.952Zm10.092-2.317.142.99-.142-.99Zm14.403-2.058.141.99.06-.008.059-.016-.26-.966Zm72.877-22.337.129.991.208-.027.179-.108-.516-.856ZM109.879 195.735l-.481-.877.481.877Zm38.597-23.412.347.937.141-.052.12-.091-.608-.794Zm26.936-17.496.472.882.292-.156.141-.3-.905-.426Zm19.665-30.057.741.672.559-.617-.506-.662-.794.607Zm-13.98 69.793-.615-.789-.027.021-.026.023.668.745Zm25.86-14.819.294.956-.294-.956Zm14.261-1.788.007 1-.007-1Zm-116.013 23.349-.976-.222.976.222Zm21.002 20.278.252-.968-.252.968Zm.877.145-.069.997.069-.997Zm28.553-63.693.585-.811-.357-.257-.43.089.202.979Zm100.331 51.137.241-.97-.241.97Zm-5.876-2.033-.542.84.542-.84Zm217.923-47.651c-33.552-.613-61.229-3.74-83.808-6.107-22.522-2.361-40.111-3.987-53.297-1.506l.37 1.966c12.836-2.416 30.096-.842 52.718 1.529 22.566 2.366 50.328 5.503 83.98 6.118l.037-2ZM330.129 152.6c-.795 2.974-1.623 5.139-3.157 7.144-1.543 2.017-3.856 3.946-7.742 6.328l1.046 1.705c3.975-2.437 6.525-4.518 8.285-6.818 1.768-2.312 2.679-4.771 3.5-7.843l-1.932-.516Zm-11.191 13.746c-3.791 5.341-8.409 8.836-18.408 15.523l1.111 1.662c9.98-6.673 14.897-10.349 18.927-16.028l-1.63-1.157Zm-18.687 15.802c-9.921 15.01-20.278 17.911-35.124 25.696l.928 1.771c14.584-7.647 25.584-10.811 35.865-26.364l-1.669-1.103Zm-35.411 25.921c-2.237 2.542-5.664 4.239-11.116 5.559-5.454 1.321-12.78 2.23-22.684 3.309l.216 1.989c9.879-1.076 17.337-1.997 22.939-3.354 5.605-1.357 9.508-3.184 12.147-6.182l-1.502-1.321Zm-34.691 9.822c-.174 4.34-.753 7.271-1.851 9.713-1.097 2.442-2.751 4.476-5.223 6.977l1.423 1.406c2.53-2.559 4.38-4.796 5.624-7.563 1.244-2.767 1.846-5.982 2.025-10.452l-1.998-.081ZM222.8 235.45c.51 3.027.802 5.284.583 7.574-.217 2.271-.945 4.642-2.589 7.842l1.779.914c1.72-3.349 2.553-5.969 2.801-8.565.247-2.578-.091-5.066-.602-8.097l-1.972.332Zm-1.117 15.873-.848.529v.001l.006.008.024.041a20.047 20.047 0 0 1 .47.844c.309.59.724 1.444 1.139 2.49.833 2.102 1.649 4.931 1.649 7.927h2c0-3.338-.904-6.429-1.79-8.664a28.145 28.145 0 0 0-1.227-2.681 20.51 20.51 0 0 0-.527-.948l-.034-.054-.009-.016-.003-.004-.001-.002v-.001l-.849.53Zm2.44 11.84c0 3.614-.851 6.238-2.072 8.155-1.224 1.92-2.858 3.191-4.515 4.035-1.663.848-3.337 1.26-4.605 1.459-.631.099-1.155.144-1.517.164-.18.01-.32.014-.412.015l-.101.001h-.026.001l-.019 1-.019 1h.057l.138-.001c.117-.002.283-.006.493-.018a17.243 17.243 0 0 0 1.715-.185c1.407-.221 3.299-.682 5.203-1.653 1.91-.973 3.842-2.465 5.293-4.742 1.454-2.281 2.386-5.289 2.386-9.23h-2Zm-13.085 13.845c-3.088-.567-5.008-2.43-6.557-5.804-1.582-3.449-2.687-8.284-4.189-14.569l-1.945.465c1.477 6.183 2.631 11.264 4.317 14.938 1.72 3.748 4.079 6.214 8.012 6.937l.362-1.967Zm-10.754-20.404c-1.566-5.732-2.231-9.296-2.814-14.675l-1.988.215c.594 5.488 1.279 9.156 2.873 14.987l1.929-.527Zm-2.417-18.975c.874-2.834 1.804-5.387 2.692-7.801.885-2.406 1.734-4.688 2.425-6.937 1.389-4.523 2.159-8.968 1.388-14.305l-1.98.286c.716 4.952.015 9.086-1.32 13.432-.671 2.185-1.498 4.41-2.39 6.833-.888 2.416-1.835 5.013-2.726 7.903l1.911.589Zm6.316-29.499c-.619-.826-1.248-1.462-2.099-1.827-.838-.359-1.76-.397-2.835-.32l.142 1.994c.983-.069 1.515-.002 1.905.165.378.162.751.473 1.286 1.187l1.601-1.199Zm-5.746-1.62c-6.307 11.841-10.383 16.692-18.048 24.373l1.416 1.412c7.782-7.798 11.984-12.804 18.397-24.845l-1.765-.94Zm-18.333 24.959c-1.567 12.938-3.652 18.618-8.649 27.282l1.733.999c5.14-8.913 7.304-14.854 8.902-28.041l-1.986-.24Zm-7.782 27.781-.97.244.001.006.007.027.027.119c.025.107.06.269.103.482.086.425.202 1.055.319 1.856.233 1.604.466 3.892.466 6.614h2c0-2.835-.243-5.22-.487-6.901a37.151 37.151 0 0 0-.337-1.966 34.124 34.124 0 0 0-.113-.529l-.033-.141-.01-.038-.002-.011-.001-.004-.001-.001-.969.243Zm-.046 9.385c.297 7.955-1.481 13.08-3.414 15.564l1.578 1.228c2.327-2.99 4.142-8.646 3.835-16.866l-1.999.074Zm-3.414 15.564c-1.035 1.33-1.973 2.298-3.189 2.954-1.211.654-2.791 1.048-5.179 1.048v2c2.609 0 4.543-.431 6.129-1.288 1.58-.852 2.722-2.078 3.817-3.486l-1.578-1.228Zm-8.255 4.008c-3.273-.374-4.8-.782-7.146-1.827l-.814 1.826c2.565 1.144 4.297 1.596 7.733 1.988l.227-1.987Zm-7.59-23.443-.337-.771-1.833.801.337.77 1.833-.8Zm-.813-15.282 1.791-4.963-1.881-.679-1.791 4.963 1.881.679Zm1.847-5.384c-.595-7.227-.618-11.308 0-18.721l-1.993-.166c-.628 7.526-.604 11.718 0 19.051l1.993-.164Zm-.064-18.444c1.057-2.734 3.28-6.42 5.282-9.475a139.556 139.556 0 0 1 3.402-4.946c.095-.133.17-.235.22-.304l.057-.077.014-.02.003-.004.001-.001v-.001l-.805-.593-.805-.593v.001l-.001.001-.004.006-.016.021-.06.081-.226.312a140.277 140.277 0 0 0-3.453 5.021c-2.002 3.054-4.333 6.898-5.475 9.85l1.866.721Zm.067 61.639v-1.109h-2v1.109h2Zm-.001-1.154-.954-21.02-1.998.09.954 21.021 1.998-.091Zm-1.628-.732c-5.526 4.471-9.134 6.379-14.705 6.575l.071 1.999c6.194-.218 10.214-2.425 15.892-7.019l-1.258-1.555Zm-14.496 6.59c-1.756-.309-3.011-.812-3.946-1.483-.925-.665-1.596-1.539-2.119-2.69-.53-1.169-.901-2.613-1.22-4.401-.318-1.789-.572-3.851-.893-6.261l-1.982.264c.316 2.375.578 4.502.906 6.348.329 1.846.736 3.482 1.368 4.876.64 1.411 1.515 2.584 2.773 3.488 1.248.897 2.813 1.485 4.766 1.829l.347-1.97Zm-8.17-14.754c-.206-4.053-1.861-8.276-3.504-12.672-1.665-4.454-3.367-9.187-3.88-14.48l-1.99.193c.541 5.583 2.333 10.539 3.996 14.988 1.685 4.507 3.194 8.399 3.38 12.073l1.998-.102Zm-7.384-27.152c-.513-5.294.277-9.129.86-13.476.585-4.359.928-9.081-.597-15.905l-1.952.436c1.457 6.519 1.132 10.988.567 15.204-.568 4.228-1.41 8.351-.868 13.934l1.99-.193Zm14.708-71.86c1.01-3.096 1.825-5.416 2.958-7.573 1.125-2.142 2.582-4.154 4.9-6.583l-1.446-1.381c-2.42 2.535-3.996 4.696-5.225 7.033-1.22 2.323-2.079 4.789-3.088 7.884l1.901.62Zm8.127-14.723c.101-.81.143-1.513.015-2.141-.14-.684-.463-1.2-.924-1.676l-1.437 1.391c.26.269.354.456.401.686.059.287.058.711-.039 1.493l1.984.247Zm-1.281-4.059c-8.411-3.115-11.263-5.795-17.072-10.471l-1.254 1.558c5.807 4.675 8.883 7.549 17.632 10.789l.694-1.876Zm-17.712-10.691c-17.578.231-26.276-.927-41.231-3.708l-.366 1.966c15.051 2.799 23.884 3.975 41.623 3.741l-.026-1.999Zm-41.773-3.659c-11.93 4.592-19.088 5.677-32.4 6.385l.107 1.998c13.452-.717 20.83-1.828 33.011-6.516l-.718-1.867Zm-32.89 6.545c-7.43 4.811-13.944 7.305-20.444 8.139-6.508.836-13.079.017-20.647-1.91l-.494 1.938c7.7 1.961 14.543 2.836 21.396 1.956 6.86-.88 13.654-3.509 21.276-8.445l-1.087-1.678Zm-41.021 6.25c-4.088-1.367-6.312-3.458-7.36-4.732l-1.544 1.271c1.257 1.528 3.784 3.858 8.27 5.358l.634-1.897Zm-8.145-6.979c.044-1.532.617-2.542 1.383-3.574l-1.606-1.192c-.881 1.187-1.716 2.593-1.777 4.708l2 .058Zm3.012-5.246c2.785-2.122 5.854-3.386 9.395-4.895 3.521-1.501 7.433-3.218 11.696-6.241l-1.157-1.632c-4.078 2.892-7.822 4.54-11.323 6.033-3.48 1.484-6.801 2.841-9.824 5.145l1.213 1.59Zm22.787-11.888c21.376-4.563 24.049-9.83 34.358-14.856l-.877-1.797c-10.84 5.284-12.819 10.197-33.899 14.697l.418 1.956Zm34.066-14.765 30.076-4.463-.294-1.978-30.075 4.462.293 1.979Zm36.704-4.574c7.815.829 14.239 1.047 20.674.247 6.439-.801 12.845-2.616 20.636-5.806l-.758-1.851c-7.677 3.143-13.907 4.899-20.124 5.672-6.222.774-12.476.571-20.216-.251l-.212 1.989Zm44.853-6.21c11.182.199 18.931-2.246 26.962-6.46 3.992-2.094 8.058-4.629 12.63-7.472 4.579-2.848 9.686-6.02 15.801-9.42l-.973-1.748c-6.161 3.427-11.305 6.622-15.885 9.47-4.588 2.853-8.588 5.345-12.502 7.399-7.78 4.083-15.2 6.423-25.998 6.232l-.035 1.999Zm57.946-24.454 44.798-14.326-.609-1.905-44.798 14.326.609 1.904Zm54.727-16.606 14.402-2.058-.283-1.98-14.402 2.058.283 1.98Zm14.521-2.082c13.228-3.57 19.422-7.638 28.146-11.487 8.734-3.854 20.29-7.646 44.6-10.825l-.259-1.983c-24.448 3.197-36.199 7.029-45.149 10.978-8.96 3.954-14.825 7.868-27.859 11.386l.521 1.93Zm73.133-22.447c14.808-8.931 34.222-12.975 55.837-16.978 21.554-3.991 45.224-7.933 68.257-16.73l-.713-1.868c-22.827 8.718-46.294 12.629-67.908 16.631-21.551 3.991-41.335 8.082-56.506 17.232l1.033 1.713ZM110.36 196.612c7.796-4.276 13.2-8.584 18.719-12.55 5.519-3.966 11.223-7.645 19.744-10.802l-.695-1.875c-8.753 3.242-14.62 7.032-20.216 11.053-5.598 4.022-10.856 8.221-18.514 12.42l.962 1.754Zm38.724-23.495c10.058-7.704 15.828-11.546 26.8-17.408l-.943-1.764c-11.081 5.92-16.942 9.824-27.073 17.584l1.216 1.588Zm27.233-17.864c5.974-12.703 9.268-18.528 19.501-29.811l-1.482-1.344c-10.398 11.466-13.794 17.471-19.829 30.304l1.81.851Zm19.554-31.09c-1.427-1.867-3.273-4.309-7.081-4.437l-.067 1.999c2.78.094 4.112 1.759 5.559 3.652l1.589-1.214Zm-14.16 71.189c9.82-7.647 16.21-11.773 25.54-14.652l-.589-1.911c-9.676 2.985-16.293 7.286-26.18 14.985l1.229 1.578Zm39.514-16.396c32.883-.231 51.148-5.972 60.932-14.051 9.878-8.156 10.938-18.533 9.896-27.393l-1.986.233c1.001 8.512-.04 18.068-9.183 25.618-9.237 7.626-26.914 13.363-59.673 13.594l.014 1.999Zm-116.996 22.127c-.574 2.528-.621 4.889-.043 7.082.579 2.199 1.77 4.169 3.575 5.934 3.576 3.497 9.587 6.211 18.194 8.451l.504-1.935c-8.523-2.219-14.109-4.827-17.3-7.946-1.578-1.543-2.562-3.204-3.039-5.013-.478-1.816-.461-3.841.06-6.13l-1.951-.443Zm22.786 21.642c13.567.936 25.743-4.786 35.714-11.669l-1.136-1.646c-9.808 6.77-21.526 12.211-34.44 11.32l-.138 1.995Zm35.714-11.669c7.732-5.336 14.218-11.428 19.035-15.749l-1.335-1.489c-4.86 4.359-11.234 10.346-18.836 15.592l1.136 1.646Zm-36.774 11.494c.34.089.701.15 1.06.175l.138-1.995a3.911 3.911 0 0 1-.694-.115l-.504 1.935Zm14.312-113.667a8.956 8.956 0 0 1 3.543-.651l.035-1.999a10.937 10.937 0 0 0-4.336.799l.758 1.851Zm-47.938 5.67c2.186-.325 4.415-.346 6.629-.111l.21-1.989c-2.365-.251-4.764-.23-7.133.122l.294 1.978Zm-65.838 19.98a4.616 4.616 0 0 1 1.696-.752l-.418-1.956a6.622 6.622 0 0 0-2.435 1.076l1.157 1.632Zm-22.72 12.808a8.367 8.367 0 0 1 1.629-1.672l-1.213-1.59a10.324 10.324 0 0 0-2.022 2.07l1.606 1.192Zm105.627 47.517c-2.364 1.297-4.522 3.379-5.169 6.225l1.951.443c.475-2.089 2.106-3.777 4.18-4.914l-.962-1.754ZM3.173 153.162a3.393 3.393 0 0 1-.785-2.247l-2-.058a5.393 5.393 0 0 0 1.24 3.576l1.545-1.271ZM207.251 180.7c4.456-1.375 9.196-1.71 13.974-1.744l-.014-1.999c-4.842.034-9.813.37-14.549 1.832l.589 1.911Zm-8.048-95.82c.806-.449 1.67-.82 2.553-1.102l-.609-1.905a16.135 16.135 0 0 0-2.917 1.259l.973 1.748ZM152.68 263.993a19.615 19.615 0 0 1-.476-14.511l-1.881-.679a21.614 21.614 0 0 0 .524 15.991l1.833-.801Zm93.874-194.541a60.834 60.834 0 0 1 9.929-2.28l-.283-1.98a62.84 62.84 0 0 0-10.255 2.355l.609 1.905ZM197.47 241.929a10.703 10.703 0 0 1 .397-4.3l-1.911-.589a12.698 12.698 0 0 0-.474 5.104l1.988-.215Zm-34.517-79.843-6.731-4.862-1.171 1.622 6.731 4.861 1.171-1.621Zm-7.518-5.03-11.78 2.43.404 1.959 11.78-2.431-.404-1.958Zm76.413 61.18c-5.198-4.724-9.359-7.608-13.755-9.156-4.406-1.551-8.95-1.725-14.837-1.218l.171 1.992c5.772-.496 9.986-.301 14.002 1.112 4.025 1.417 7.951 4.094 13.073 8.75l1.346-1.48Zm30.429-6.916c-1.878-1.371-3.8-2.554-6.068-3.118l-.483 1.941c1.889.47 3.56 1.47 5.371 2.792l1.18-1.615Zm-11.644-5.022c-14.716-9.48-22.136-16.345-33.261-29.225l-1.514 1.307c11.232 13.003 18.793 20.001 33.692 29.599l1.083-1.681Zm-49.87-.119c-2.557-4.162-4.646-7.307-7.287-9.646-2.676-2.37-5.856-3.864-10.513-4.884l-.428 1.954c4.423.968 7.261 2.342 9.615 4.427 2.389 2.117 4.341 5.017 6.909 9.196l1.704-1.047Zm55.446 2.023c-2.111-.526-4-.889-5.576-1.904l-1.083 1.681c1.928 1.242 4.243 1.683 6.176 2.164l.483-1.941Zm-82.642-52.176.457-.89-.002-.001-.009-.005-.038-.019a113.595 113.595 0 0 1-2.962-1.62c-1.88-1.063-4.494-2.6-7.43-4.496-5.886-3.803-13.002-9.009-18.09-14.69l-1.49 1.334c5.266 5.881 12.56 11.201 18.495 15.036a151.936 151.936 0 0 0 7.53 4.557 118.19 118.19 0 0 0 2.865 1.569l.16.084.042.022a.054.054 0 0 1 .011.006l.003.001.001.001.457-.889Z" fill="#FFE6F2"/></svg>